<?xml version="1.0" encoding="utf-8"?>
<!-- Generator: Adobe Illustrator 22.1.0, SVG Export Plug-In . SVG Version: 6.00 Build 0)  -->
<svg version="1.1" id="Layer_2" xmlns="http://www.w3.org/2000/svg" xmlns:xlink="http://www.w3.org/1999/xlink" x="0px" y="0px"
	 viewBox="0 0 64 64" style="enable-background:new 0 0 64 64;" xml:space="preserve">
<style type="text/css">
	.st0{fill:url(#SVGID_1_);}
	.st1{fill:url(#SVGID_2_);}
	.st2{fill:url(#SVGID_3_);}
	.st3{fill:url(#SVGID_4_);}
	.st4{fill:url(#SVGID_5_);}
	.st5{fill:url(#SVGID_6_);}
	.st6{fill:url(#SVGID_7_);}
	.st7{fill:url(#SVGID_8_);}
	.st8{fill:url(#SVGID_9_);}
	.st9{fill:url(#SVGID_10_);}
	.st10{fill:url(#SVGID_11_);}
	.st11{fill:url(#SVGID_12_);}
	.st12{fill:url(#SVGID_13_);}
	.st13{fill:url(#SVGID_14_);}
	.st14{fill:url(#SVGID_15_);}
	.st15{fill:url(#SVGID_16_);}
	.st16{fill:url(#SVGID_17_);}
	.st17{fill:url(#SVGID_18_);}
	.st18{fill:url(#SVGID_19_);}
	.st19{fill:url(#SVGID_20_);}
	.st20{fill:url(#SVGID_21_);}
	.st21{fill:url(#SVGID_22_);}
	.st22{fill:url(#SVGID_23_);}
	.st23{fill:url(#SVGID_24_);}
	.st24{fill:url(#SVGID_25_);}
</style>
<g>
	<g>
		<linearGradient id="SVGID_1_" gradientUnits="userSpaceOnUse" x1="13.2161" y1="51.1787" x2="50.784" y2="13.6108">
			<stop  offset="0" style="stop-color:#05B8E8"/>
			<stop  offset="1" style="stop-color:#3644FA"/>
		</linearGradient>
		<path class="st0" d="M32,3c-10.8,0-19.7,8.8-19.9,19.5c0,0.4,0.1,0.7,0.4,1c0.2,0.3,0.6,0.4,0.9,0.4h3.2l9.9,18.6v3h-1.2
			c-0.8,0-1.5,0.7-1.5,1.5v9.3h-0.3c-0.7,0-1.3,0.6-1.3,1.3v2.2c0,0.7,0.6,1.3,1.3,1.3h16.8c0.7,0,1.3-0.6,1.3-1.3v-2.2
			c0-0.7-0.6-1.3-1.3-1.3h-0.3v-9.3c0-0.8-0.7-1.5-1.5-1.5h-1.2v-3l9.9-18.6h3.2c0.4,0,0.7-0.1,0.9-0.4c0.2-0.3,0.4-0.6,0.4-1
			C51.7,11.8,42.8,3,32,3z M33,5.1c4,1,7.2,8.2,7.4,16.7H33V5.1z M33,23.9l-1,1.8l-1-1.8H33z M35.4,43.2v2.2h-6.8v-2.2H35.4z
			 M31,5.1v16.7h-7.4C23.8,13.3,27,6.2,31,5.1z M14.2,21.9c0.4-7.5,5.5-13.7,12.4-16c-2.9,3.3-4.8,9.1-4.9,16H14.2z M19.9,25.6
			l-1-1.8h1.9L19.9,25.6z M21,27.7l2.1-3.8h5.6l2.3,4.1v13.2h-2.8L21,27.7z M25.8,47.4h6.6L30.8,49h-5V47.4z M25.8,51h3l-1.6,1.6
			h-1.4V51z M39.7,58.2V59H24.3v-0.8H39.7z M31.6,56.2l1.6-1.6h5v1.6H31.6z M38.2,52.6h-3l1.6-1.6h1.4V52.6z M37.5,47.4l-8.8,8.8
			h-2.3l8.8-8.8H37.5z M35.8,41.2H33V27.9l2.3-4.1h5.6l2.1,3.8L35.8,41.2z M44.1,25.6l-1-1.8h1.9L44.1,25.6z M42.4,21.9
			c-0.2-6.9-2.1-12.7-4.9-16c6.8,2.2,12,8.5,12.4,16H42.4z"/>
	</g>
</g>
</svg>
